Patient4_TMGait_0pt7_02_right_49_EMG.mot
version=1
nRows=16
nColumns=33
inDegrees=no
endheader
time	1LAddLong	2LGlutMax	3LGlutMed	4LIliopsoas	5LSemiMemb	6LBicFemLong	7LRecFem	8LVastMed	9LVastLat	10LGasMed	11LTibAnt	12lTibPost	13LPeroneusLong	14LSol	15LExtDigLong	16LFlexDigLong	17RAddLong	18RGlutMax	19RGlutMed	20RIliopsoas	21RSemiMemb	22RBicFemLong	23RRecFem	24RVastMed	25RVastLat	26RGasMed	27RTibAnt	28RTibPost	29RPeroneusLong	30RSol	31RExtDigLong	32RFlexDigLong
55.52	0.010834	-0.16739	-0.059967	0.00351	0.039978	-0.023956	0.047302	0.013733	0.082397	0.14557	0.015564	0.013428	-0.062408	-0.1088	0.075684	-0.5011	0.056305	0.073395	0.42374	0.14099	0.022125	0.027618	-0.067291	-0.11978	-0.020294	0.00061	-0.3714	-0.004578	0.004578	0.13962	-0.001526	-0.002441
55.521	0.016937	-0.15457	0.12207	-0.000458	0.098267	-0.42984	0.056915	0.017242	0.24139	-0.001526	0.041962	0.015106	-0.064087	-0.12299	0.10544	0.090027	0.058594	0.11444	0.056305	0.083923	0.016022	0.050201	-0.072327	-0.13596	-0.014343	0.001373	-0.24689	-0.003967	-0.036621	0.12253	0.000458	-0.000458
55.522	0.00946	-0.15106	0.095673	0.002441	0.036316	-0.35629	0.11322	0.001221	0.31158	-0.006256	0.024261	0.007477	-0.050049	0.010071	0.11597	0.31204	0.055542	0.15366	-0.045319	0.028534	0.001831	0.02594	-0.066528	-0.14313	-0.026093	-0.001221	-0.090027	-0.007935	-0.070648	0.072937	0.002747	-0.003052
55.523	0.005798	-0.14297	0.097961	0.005646	-0.003357	-0.18997	0.13412	-0.016174	0.22537	0.036011	0.034637	0.005188	-0.024261	0.01358	0.068817	0.12558	0.041962	0.10468	0.22629	0.008087	0.009613	0.040131	-0.093384	-0.19943	-0.014648	0.000458	-0.030212	-0.001221	-0.074921	0.067596	-0.002136	-0.000305
55.524	0.00412	-0.10986	0.07019	-0.000916	0.009003	-0.027618	0.088806	-0.026855	-0.10468	0.18997	-0.004272	0.003052	0.014496	-0.043182	0.067596	-0.01236	0.029449	0.063782	0.79422	0.060425	0.004272	0.065613	-0.020905	-0.14313	-0.032959	0.000305	0.014648	-0.011444	-0.10773	0.068665	0.000458	-0.002747
55.525	-0.000153	-0.12726	-0.012054	0.023804	0.049744	-0.022278	0.053253	-0.02182	-0.27496	-0.002747	-0.019989	0.003662	-0.006104	-0.042114	0.031281	-0.049133	0.007172	0.049591	1.1191	0.15305	0.014648	0.061951	0.071259	-0.098724	-0.029907	-0.001831	0.039978	-0.010834	-0.14038	0.070801	-0.001678	-0.002747
55.526	0.003815	-0.14511	0.091553	0.015411	0.002136	-0.019684	0.020142	-0.010986	-0.26977	-0.040588	-0.03006	0.014496	0.010376	-0.20538	-0.080261	0.071411	-0.003204	-0.00946	1.1673	0.14191	0.007324	0.075073	0.14252	-0.041809	-0.020142	-0.006561	0.057678	-0.001831	-0.10727	0.10178	-0.002441	-0.002136
55.527	0.004578	-0.12573	0.20279	0.014801	-0.037384	0.00946	-0.014191	-0.000305	-0.12878	-0.084686	0.003204	0.006866	-0.01297	-0.20813	-0.021667	0.019684	-0.023041	-0.08667	1.4137	0.084229	0.02121	0.12619	0.037384	-0.074463	-0.036469	-0.001984	0.055237	-0.003967	-0.028992	0.054779	-0.006104	0.000305
55.528	0.002289	-0.088348	0.12817	0.011292	-0.01236	0.002899	-0.014648	-0.011139	-0.0737	-0.10284	0.032349	-0.002441	-0.040588	-0.018921	0.042572	-0.054474	-0.027924	-0.062714	1.0672	0.0737	0.022125	0.10742	-0.12482	-0.077362	-0.032806	-0.006104	0.055695	-0.005035	0.025635	0.017853	-0.001678	-0.002747
55.529	0.001526	-0.1059	0.13367	0.004272	0.035706	0.010681	-0.01297	-0.006256	-0.020142	-0.072632	0.082397	0.013885	-0.044556	0.048828	0.072174	-0.041199	-0.00824	-0.093994	0.50308	0.072327	0.036926	0.10208	-0.20004	-0.098724	-0.013885	-0.013123	0.055237	-0.003967	0.036011	0.022125	-0.003815	0.000153
55.53	-0.006256	-0.075989	0.11017	-0.009766	0.025635	0.046234	0.025635	0.003967	0.00885	-0.047913	0.18051	0.003967	-0.093079	0.055847	0.12299	-0.071716	0.038452	-0.049438	0.59677	0.023651	0.054016	0.11017	-0.22018	-0.09613	-0.028687	-0.009918	0.065765	-0.00824	0.031433	-0.026398	0.000153	0.000305
55.531	-0.006104	-0.027008	0.079346	-0.001984	-0.013733	0.023956	0.075684	0.003204	0.036926	-0.016174	0.20462	0.009918	-0.14038	0.043182	0.30273	-0.043182	0.032806	-0.036011	1.1258	-0.0177	0.060883	0.14145	-0.1918	-0.11597	-0.017242	-0.004578	0.091095	-0.004272	-0.007935	-0.042725	-0.000458	-0.003204
55.532	-0.008087	-0.036774	0.03067	0.003357	-0.029297	-0.012512	0.11063	-0.003204	0.089569	0.018463	0.17624	0.004883	-0.094452	0.044098	0.59143	-0.034027	0.023804	0.027008	0.85785	0.072632	0.011292	0.1355	-0.090179	-0.096283	-0.032806	-0.007019	0.14999	0.007477	-0.041351	-0.080109	0.001526	-0.013733
55.533	-0.009613	-0.025787	0.020905	-0.005035	-0.001068	-0.056	0.1297	-0.012817	0.1152	-0.013428	-0.019379	0.009155	0.008545	0.06424	-0.071716	-0.035095	-0.004883	-0.014954	0.60547	0.10666	-0.019531	0.12299	-0.15915	-0.10712	-0.015717	-0.010834	0.18143	-0.004272	-0.036316	-0.057831	0.000305	0.000305
55.534	-0.014801	-0.006561	0.019531	0.007477	0.00946	-0.04715	0.12329	-0.008545	0.1326	-0.074615	-0.26443	0.01358	0.11993	0.056915	-0.50674	-0.028534	-0.027618	-0.055084	0.47012	0.12436	-0.046234	0.10269	-0.11429	-0.13901	-0.0177	-0.006104	0.19134	-0.001831	-0.053864	-0.055847	0.001068	-0.007629
55.535	-0.009613	-0.003815	-0.070343	0.014954	-0.006256	-0.058289	0.098114	0.005035	0.15411	-0.067444	-0.25787	0.010071	0.070953	0.016632	-0.37354	-0.035248	-0.027313	-0.080414	0.62592	0.08728	-0.086212	0.10544	-0.033569	-0.10056	0.004272	-0.00351	0.18829	-0.007019	-0.077209	-0.031433	0.000153	0.00061
